<svg xmlns="http://www.w3.org/2000/svg" viewBox="0 0 512 512">
  <defs>
    <linearGradient id="bg" x1="0" y1="0" x2="1" y2="1">
      <stop offset="0" stop-color="#6b63ff" />
      <stop offset="1" stop-color="#29d8a1" />
    </linearGradient>
    <linearGradient id="shine" x1="0" y1="0" x2="0" y2="1">
      <stop offset="0" stop-color="#ffffff" stop-opacity=".24" />
      <stop offset="1" stop-color="#ffffff" stop-opacity="0" />
    </linearGradient>
    <filter id="shadow" x="-20%" y="-20%" width="140%" height="140%">
      <feDropShadow dx="0" dy="18" stdDeviation="20" flood-color="#000000" flood-opacity=".28" />
    </filter>
  </defs>

  <rect x="44" y="44" width="424" height="424" rx="132" fill="url(#bg)" filter="url(#shadow)" />
  <path d="M88 128 C 190 66, 328 64, 426 142" fill="none" stroke="url(#shine)" stroke-width="34" />

  <circle cx="256" cy="264" r="132" fill="#0f1d3a" fill-opacity=".24" />

  <path
    d="M126 348 C 176 318, 214 286, 254 240 C 286 204, 328 176, 386 158"
    fill="none"
    stroke="#ffffff"
    stroke-opacity=".9"
    stroke-width="18"
    stroke-linecap="round"
    stroke-dasharray="4 24"
  />

  <path
    d="M256 148
       C 208 148, 170 186, 170 234
       C 170 286, 214 338, 256 386
       C 298 338, 342 286, 342 234
       C 342 186, 304 148, 256 148 Z"
    fill="#ffffff"
  />
  <circle cx="256" cy="232" r="38" fill="#5875ff" />
</svg>

